<?xml version="1.0" encoding="UTF-8"?>
<svg id="Layer_1" xmlns="http://www.w3.org/2000/svg" version="1.1" viewBox="0 0 2811.05 670.72">
  <!-- Generator: Adobe Illustrator 30.3.0, SVG Export Plug-In . SVG Version: 2.1.3 Build 182)  -->
  <defs>
    <style>
      .st0 {
        fill: #dabcba;
      }

      .st1 {
        fill: #1b1b1b;
      }

      .st2 {
        fill: #cbbeb5;
      }
    </style>
  </defs>
  <path class="st2" d="M287.16,203.17c-6-12.94-13-25.4-20.16-36.87,8.98,15.19,17.91,32.02,26.56,50.67l-6.4-13.8Z"/>
  <polygon class="st2" points="293.57 216.97 293.57 216.97 293.57 216.97 293.57 216.97"/>
  <path class="st1" d="M1574.95,576.86L1320.66,14.75h-9.27c-.69,9.62-6.87,28.83-18.53,57.65-6.18,15.11-84.42,183.25-234.73,504.46-9.62,19.92-21.8,34.84-36.55,44.78-14.77,9.96-29.34,14.93-43.75,14.93h-8.24v10.3h196.64v-10.3h-8.24c-13.74,0-24.03-4.63-30.89-13.9-6.87-9.27-10.3-17.84-10.3-25.74s1.71-16.3,5.15-25.22l56.62-133.84h260.47l56.62,136.92c2.73,7.56,4.12,15.28,4.12,23.16s-3.44,16.31-10.29,25.22c-6.87,8.93-16.83,13.38-29.86,13.38h-8.24v10.3h211.05v-10.3h-8.24c-32.94,0-59.37-19.9-79.27-59.71ZM1191.97,406.99l119.42-282.08,115.31,282.08h-234.73Z"/>
  <path class="st1" d="M2240.13,514c-25.84,36.24-58.38,62.25-97.64,78.01-39.25,15.77-85.05,23.65-137.39,23.65s-98.31-11.73-137.9-35.23c-39.6-23.48-69.8-56.52-90.59-99.15-20.81-42.61-31.2-92.76-31.2-150.48,0-88.58,23.15-158.36,69.45-209.36,46.3-50.99,109.37-76.5,189.23-76.5,137.55,0,220.77,57.72,249.63,173.13h9.06l-22.15-142.93c-30.87-18.78-67.44-33.55-109.71-44.29-42.27-10.73-84.22-16.11-125.82-16.11-102.67,0-183.7,28.18-243.08,84.55-59.39,56.37-89.08,133.37-89.08,231s29.69,174.64,89.08,231.01c59.39,56.37,140.42,84.88,243.08,85.56,59.04,0,113.39-11.58,163.06-34.73,49.65-23.15,87.57-54.86,113.74-95.12l11.07-137.9h-9.06c-3.37,53.69-17.96,98.64-43.78,134.88Z"/>
  <path class="st1" d="M2781.7,500.13c-11.64,24.63-23.09,44.48-34.38,59.52-11.29,15.05-27.71,28.06-49.26,38.99-21.55,10.95-48.07,16.42-79.53,16.42h-161.11v-260.65h178.55c6.16.69,11.96,2.05,17.44,4.1,14.37,6.85,21.55,19.85,21.55,39v13.34h11.29v-143.66h-11.29v13.34c0,12.31-3.59,22.58-10.78,30.78-7.18,8.21-17.62,12.31-31.3,12.31h-175.47V62.98h213.44c15.04,0,27.35,5.13,36.94,15.39,9.57,10.26,14.37,22.58,14.37,36.94v15.39l11.29,1.03V14.75c-6.16,2.74-19.85,6.16-41.05,10.26-21.21,4.1-45.84,6.16-73.88,6.16h-299.64v10.26h14.37c16.42,0,30.43,5.13,42.07,15.39,11.62,10.26,17.44,22.93,17.44,37.97v487.43c-.69,15.06-6.67,27.88-17.96,38.48-11.29,10.61-25.14,15.9-41.56,15.9h-14.37v10.26h416.62l56.44-146.74h-10.26Z"/>
  <path class="st0" d="M293.85,639.99c-34.54,0-62.56-25.37-63.2-56.88v-141.79c-9.14-.13-17.97-1.76-26.53-3.33l-2.13-.39c-11.77-2.15-23.58-4.67-35.24-7.55,0,0,0,87.18,0,87.18-10.65-6.14-20.21-12.53-28.44-21.78-8-8.98-14.41-19.4-18.61-30.68-5.88-15.79-6.63-37.92,10.11-47.53,8.85-4.74,18.12-3.07,27.35-.59,15.43,4.15,31.02,7.66,46.74,10.53,15,2.74,30.23,5.92,45.16.96,11.52-3.83,19.02-19.43,14.49-30.52-3.58-8.73-5.73-12.03,5.35-18.61,5.6-3.32,5.43-10.49.38-14.76-.9-.77-1.83-1.49-2.63-2.14,2.63-1.39,5.07-2.34,7.11-3.83,4.21-3.07,5.34-9.3,1.82-11.72-7.09-4.86-6.55-11.33-4.97-18.32.56-2.47,1.83-3.89,4.37-4.77,6.62-2.28,13.02-5.11,17.94-10.38,4.51-4.82,4.79-9.15.7-14.16-2.37-2.9-5.04-5.55-7.52-8.36-8.37-9.51-16.8-18.96-25.04-28.58-3.92-4.59-5.64-10.03-5.29-16.18.12-2.24.82-3.26,2.92-4.24,6.07-2.83,12.1-5.83,17.83-9.27,3.52-2.12,6.49-5.2,9.7-7.84-.09-.05-.17-.11-.26-.17-5.92,3.41-18.01,9.74-18.14,9.49,3.57-3.7,7.14-7.41,10.71-11.11-6.57,5.47-13.35,10.28-21.72,13.75.47-3.08.97-5.47,1.18-7.89.7-7.82,2.27-15.72,1.71-23.46-1.03-14.15-5.73-27.55-11.58-40.43-7.63-16.79-16.35-32.89-29-46.42,1.6,9.26,2.5,18.92,2.46,28.9-.08,21.35-4.44,39.45-5.13,42.23-7.26,29.44-19.77,47.07-38.28,74.99-31.62,47.67-47.75,72.15-63.54,104.19-22.13,44.91-24.01,64.5-23.68,78.14.27,11.43,2.18,21.76,4.62,30.51,3.78,13.55,8.85,23.31,11.16,27.5,11.49,20.85,25.97,33.16,31.97,37.88,9.92,7.82,19.72,13.07,28.06,16.62v24.37c-.87,31.31-28.79,56.45-63.17,56.45h-12.48l-.16,9.05h215.55l-.16-9.05h-12.48Z"/>
  <path class="st0" d="M65.9,464.57c-6.07-23.28-1.65-43.57.78-54.15,5.95-25.94,18.03-42.84,29.71-59.42,36.05-51.19,56.75-80.71,75.25-112.98,23.16-40.39,31.6-65.4,30.69-90.5-.74-20.54-7.62-39.09-7.62-39.09-6.52-17.6-15.45-29.22-20.72-35.97-6.2-7.95-10.5-13.45-17.98-18.76-2.08-1.48-4.17-2.77-6.26-3.91,12.1,24.4,16.02,37.67,17.6,51.61,2.49,21.98-1.55,39.31-4.11,49.84-5.63,23.24-14.6,39.8-28.73,63.33-22.55,37.55-42.7,68.32-57.47,88.54-20.9,28.63-35.95,45.85-47.49,77.99-7.61,21.15-14.49,41.17-7.62,63.92,7.01,23.25,24.82,37.53,41.63,51.02,16.26,13.04,31.83,20.95,42.87,25.67-14.34-10.62-33.23-29.17-40.53-57.14Z"/>
  <path class="st1" d="M803.93,499.39v83.11c-.87,31.31-28.79,56.45-63.17,56.45h-12.48l-.16,9.05h215.55l-.16-9.05h-12.48c-34.54,0-62.56-25.37-63.2-56.88V33.9c11.71-5.9,24.73-10.15,37.95-10.15h12.48l.16-8.99h-139.76s-25.64,0-25.64,0l-248.37,519.52L256.28,14.75H90.89s.16,9,.16,9h12.48c16.19,0,32.1,6.38,45.65,14.35h0s59.94,29.22,117.83,127.15c7.16,11.46,14.16,23.93,20.16,36.87l6.4,13.8h0s205.05,442.04,205.05,442.04h12.07L803.93,83.13v416.26Z"/>
</svg>